<?xml version="1.0" encoding="UTF-8" standalone="no"?>
<svg
   xmlns:dc="http://purl.org/dc/elements/1.1/"
   xmlns:cc="http://creativecommons.org/ns#"
   xmlns:rdf="http://www.w3.org/1999/02/22-rdf-syntax-ns#"
   xmlns:svg="http://www.w3.org/2000/svg"
   xmlns="http://www.w3.org/2000/svg"
   xmlns:sodipodi="http://sodipodi.sourceforge.net/DTD/sodipodi-0.dtd"
   xmlns:inkscape="http://www.inkscape.org/namespaces/inkscape"
   version="1.1"
   viewBox="0 0 473.39999 473.39679"
   xml:space="preserve"
   id="svg935"
   sodipodi:docname="inst.svg"
   width="473.39999"
   height="473.39679"
   inkscape:version="0.92.2 (5c3e80d, 2017-08-06)"><metadata
     id="metadata941"><rdf:RDF><cc:Work
         rdf:about=""><dc:format>image/svg+xml</dc:format><dc:type
           rdf:resource="http://purl.org/dc/dcmitype/StillImage" /><dc:title></dc:title></cc:Work></rdf:RDF></metadata><defs
     id="defs939" /><sodipodi:namedview
     pagecolor="#ffffff"
     bordercolor="#666666"
     borderopacity="1"
     objecttolerance="10"
     gridtolerance="10"
     guidetolerance="10"
     inkscape:pageopacity="0"
     inkscape:pageshadow="2"
     inkscape:window-width="958"
     inkscape:window-height="1078"
     id="namedview937"
     showgrid="false"
     fit-margin-top="0"
     fit-margin-left="0"
     fit-margin-right="0"
     fit-margin-bottom="0"
     inkscape:zoom="1.5"
     inkscape:cx="237.2"
     inkscape:cy="236.8"
     inkscape:window-x="1"
     inkscape:window-y="1"
     inkscape:window-maximized="0"
     inkscape:current-layer="svg935" /><style
     type="text/css"
     id="style911">
	.st0{fill:url(#SVGID_1_);}
	.st1{fill:#FFFFFF;}
</style><g
     id="Edges"
     transform="translate(-18.8,-19.4032)" /><g
     id="Background_1_"
     transform="translate(-18.8,-19.4032)"><radialGradient
       cx="50.158199"
       cy="15.1047"
       gradientTransform="matrix(0.05233596,-0.9986,0.8488,0.04448556,12.0003,498.8006)"
       gradientUnits="userSpaceOnUse"
       id="SVGID_1_"
       r="684.44489"><stop
         offset="0"
         style="stop-color:#FED576"
         id="stop914" /><stop
         offset="0.2634"
         style="stop-color:#F47133"
         id="stop916" /><stop
         offset="0.6091"
         style="stop-color:#BC3081"
         id="stop918" /><stop
         offset="1"
         style="stop-color:#4C63D2"
         id="stop920" /></radialGradient><path
       class="st0"
       d="m 18.8,250.1 v 12.8 C 22.1,385.3 120.7,483.6 238,492.8 h 36.1 C 392.1,483.5 489,384.3 492.2,262.7 V 250.1 C 489,126.3 388.7,25.9 267.9,19.7 137.9,13.1 22.4,117.4 18.8,250.1 Z"
       id="path923"
       inkscape:connector-curvature="0"
       style="fill:url(#SVGID_1_)" /></g><g
     id="Symbol"
     transform="translate(-18.8,-19.4032)"><g
       id="g932"><path
         class="st1"
         d="m 256.6,138.3 c 37.7,0 42.2,0.1 57.1,0.8 13.8,0.6 21.2,3 26.2,4.9 6.6,2.6 11.3,5.7 16.2,10.7 4.9,5 8,9.8 10.6,16.5 1.9,5.1 4.2,12.7 4.9,26.7 0.7,15.2 0.8,19.7 0.8,58.1 0,38.4 -0.1,42.9 -0.8,58.1 -0.6,14 -2.9,21.6 -4.9,26.7 -2.6,6.7 -5.6,11.5 -10.6,16.5 -4.9,5 -9.6,8.1 -16.2,10.7 -5,2 -12.5,4.3 -26.2,4.9 -14.9,0.7 -19.4,0.8 -57.1,0.8 -37.7,0 -42.2,-0.1 -57.1,-0.8 -13.8,-0.6 -21.2,-3 -26.2,-4.9 -6.6,-2.6 -11.3,-5.7 -16.2,-10.7 -4.9,-5 -8,-9.8 -10.6,-16.5 -1.9,-5.1 -4.2,-12.7 -4.9,-26.7 -0.7,-15.2 -0.8,-19.7 -0.8,-58.1 0,-38.4 0.1,-42.9 0.8,-58.1 0.6,-14 2.9,-21.6 4.9,-26.7 2.6,-6.7 5.6,-11.5 10.6,-16.5 4.9,-5 9.6,-8.1 16.2,-10.7 5,-2 12.5,-4.3 26.2,-4.9 14.9,-0.6 19.4,-0.8 57.1,-0.8 m 0,-25.9 c -38.4,0 -43.2,0.2 -58.2,0.9 -15,0.7 -25.3,3.1 -34.3,6.7 -9.3,3.7 -17.2,8.6 -25,16.6 -7.9,8 -12.7,16 -16.3,25.5 -3.5,9.1 -5.9,19.6 -6.6,34.9 -0.7,15.3 -0.8,20.2 -0.8,59.2 0,39 0.2,43.9 0.8,59.2 0.7,15.3 3.1,25.7 6.6,34.9 3.6,9.4 8.4,17.5 16.3,25.5 7.9,8 15.7,12.9 25,16.6 9,3.6 19.3,6 34.3,6.7 15.1,0.7 19.9,0.9 58.2,0.9 38.3,0 43.2,-0.2 58.2,-0.9 15,-0.7 25.3,-3.1 34.3,-6.7 9.3,-3.7 17.2,-8.6 25,-16.6 7.9,-8 12.7,-16 16.3,-25.5 3.5,-9.1 5.9,-19.6 6.6,-34.9 0.7,-15.3 0.8,-20.2 0.8,-59.2 0,-39 -0.2,-43.9 -0.8,-59.2 -0.7,-15.3 -3.1,-25.7 -6.6,-34.9 -3.6,-9.4 -8.4,-17.5 -16.3,-25.5 -7.9,-8 -15.7,-12.9 -25,-16.6 -9,-3.6 -19.3,-6 -34.3,-6.7 -15,-0.7 -19.9,-0.9 -58.2,-0.9 z"
         id="path926"
         inkscape:connector-curvature="0"
         style="fill:#ffffff" /><path
         class="st1"
         d="m 256.6,182.3 c -40.1,0 -72.5,33 -72.5,73.8 0,40.8 32.5,73.8 72.5,73.8 40,0 72.5,-33 72.5,-73.8 0,-40.8 -32.5,-73.8 -72.5,-73.8 z m 0,121.7 c -26,0 -47.1,-21.4 -47.1,-47.9 0,-26.5 21.1,-47.9 47.1,-47.9 26,0 47.1,21.4 47.1,47.9 0,26.5 -21.1,47.9 -47.1,47.9 z"
         id="path928"
         inkscape:connector-curvature="0"
         style="fill:#ffffff" /><ellipse
         class="st1"
         cx="332"
         cy="179.39999"
         rx="16.9"
         ry="17.200001"
         id="ellipse930"
         style="fill:#ffffff" /></g></g></svg>